<mxfile host="app.diagrams.net" modified="2023-06-09T07:33:48.876Z" agent="Mozilla/5.0 (Macintosh; Intel Mac OS X 10.15; rv:109.0) Gecko/20100101 Firefox/113.0" version="21.3.2" etag="dBCcXCrxCMq5mKPidL4t" type="github">
  <diagram name="第 1 页" id="HZXRNr4EEsjQxBl7SfWb">
    <mxGraphModel>
      <root>
        <mxCell id="0" />
        <mxCell id="1" parent="0" />
      </root>
    </mxGraphModel>
  </diagram>
</mxfile>
